<?xml version="1.0" encoding="utf-8"?>
<svg version="1.1" width="3780px" height="1080" viewBox="0 0 3780 1080" xmlns="http://www.w3.org/2000/svg">
  <desc>Created with Fabric.js 5.2.4</desc>
  <g transform="matrix(1 0 0 1 540 540)" id="6c158a89-a7af-45e9-bb32-2e8223b05a0d">
    <rect style="stroke: none; stroke-width: 1; stroke-dasharray: none; stroke-linecap: butt; stroke-dashoffset: 0; stroke-linejoin: miter; stroke-miterlimit: 4; fill: rgb(255,255,255); fill-rule: nonzero; opacity: 1; visibility: hidden;" vector-effect="non-scaling-stroke" x="-540" y="-540" rx="0" ry="0" width="1080" height="1080"/>
  </g>
  <g transform="matrix(1 0 0 1 540 540)" id="61b8183d-1bd4-43f0-ab21-dc3d562de277"/>
  <g transform="matrix(17.21 0 0 17.21 540 540)">
    <path style="stroke: none; stroke-width: 1; stroke-dasharray: none; stroke-linecap: butt; stroke-dashoffset: 0; stroke-linejoin: miter; stroke-miterlimit: 4; fill: rgb(2,132,199); fill-rule: nonzero; opacity: 1;" transform=" translate(-50, -50)" d="M 50 20 C 53.79 20 56.79 24.11 60.11 25.53 C 63.43 26.950000000000003 68.63 26.16 71.11 28.84 C 73.59 31.52 73 36.42 74.42 39.89 C 75.84 43.36 80 46.21 80 50 C 80 53.79 75.89 56.79 74.47 60.11 C 73.05 63.43 73.84 68.63 71.16 71.11 C 68.63 73.63 63.58 73 60.16 74.42 C 56.739999999999995 75.84 53.79 80 50 80 C 46.21 80 43.21 75.89 39.89 74.47 C 36.57 73.05 31.37 73.84 28.89 71.16 C 26.37 68.63 27 63.58 25.580000000000002 60.16 C 24.160000000000004 56.739999999999995 20 53.79 20 50 C 20 46.21 24.11 43.21 25.53 39.89 C 26.950000000000003 36.57 26.16 31.37 28.84 28.89 C 31.52 26.41 36.42 27 39.89 25.53 C 43.36 24.060000000000002 46.21 20 50 20 Z M 50 29.47 C 38.66159408597381 29.47 29.47 38.66159408597381 29.47 50 C 29.47 61.33840591402619 38.66159408597381 70.53 50 70.53 C 61.33840591402619 70.53 70.53 61.33840591402619 70.53 50 C 70.49704713825655 38.675271692738725 61.32472830726126 29.502952861743445 49.999999999999986 29.47 Z M 59.519999999999996 40.91 L 61.519999999999996 42.809999999999995 C 61.94852408706283 43.367129804288474 61.94852408706283 44.14287019571152 61.519999999999996 44.699999999999996 L 48.78 58.84 C 48.27914660953386 59.418569059355235 47.544937119893184 59.74162123479714 46.78 59.720000000000006 C 46.02066229334431 59.71428674987234 45.2972231792556 59.395973539673314 44.78 58.84 L 37.9 52 C 37.62878444935287 51.76081036709809 37.47341166298534 51.41662073419617 37.47341166298534 51.055 C 37.47341166298534 50.69337926580383 37.62878444935287 50.34918963290191 37.9 50.11 L 39.9 48.21 C 40.15902306009712 47.93339285457517 40.52104821076798 47.77642938868876 40.9 47.77642938868876 C 41.27895178923202 47.77642938868876 41.64097693990288 47.93339285457517 41.9 48.21 L 46.769999999999996 53.21 L 57.52 40.91 C 57.779023060097124 40.63339285457516 58.141048210767984 40.47642938868876 58.52 40.47642938868876 C 58.89895178923202 40.47642938868876 59.26097693990288 40.63339285457516 59.52 40.91 Z" stroke-linecap="round"/>
  </g>
  <text style="font-family: 'YaHei Consolas Hybrid'; font-size: 129.9px; font-weight: 700; letter-spacing: 16px; white-space: pre;" transform="matrix(3.945103, 0, 0, 4.059538, -3554.086914, -1330.608398)" x="1224.42" y="503.079">费控王</text>
  <g id="SVGRepo_bgCarrier" stroke-width="0" transform="matrix(1, 0, 0, 1, 3238.590088, -43.980717)"/>
  <g id="SVGRepo_tracerCarrier" stroke-linecap="round" stroke-linejoin="round" transform="matrix(1, 0, 0, 1, 3238.590088, -43.980717)"/>
  <g id="SVGRepo_iconCarrier" transform="matrix(21.068048, 0, 0, 17.008198, 2906.920166, 1.107667)" style="">
    <title>beta-solid</title>
    <g id="g-1" stroke-width="0" transform="matrix(1.073691, 0, 0, 1.405096, 2.085258, -10.203463)" style=""/>
    <g id="g-2" stroke-linecap="round" stroke-linejoin="round" transform="matrix(1.073691, 0, 0, 1.405096, 2.085258, -10.203463)" style=""/>
    <g id="g-3" transform="matrix(1.032247, 0, 0, 1.334848, 3.471819, -8.827531)" style="">
      <title>beta-solid</title>
      <polygon points="25.8,18 27.5,18 26.7,15.8" class="clr-i-solid clr-i-solid-path-1" style="fill: rgb(219, 45, 42);"/>
      <path d="M10.4,17.5c-0.1,0-0.2,0-0.3,0H8.5V19l1.6,0c0.4,0.1,0.8-0.2,0.9-0.6C11.1,18,10.8,17.6,10.4,17.5z" class="clr-i-solid clr-i-solid-path-2" style="fill: rgb(219, 45, 42);"/>
      <path d="M10.7,15.8c0-0.4-0.3-0.7-0.8-0.7H8.5v1.3h1.4C10.4,16.5,10.7,16.2,10.7,15.8z" class="clr-i-solid clr-i-solid-path-3" style="fill: rgb(219, 45, 42);"/>
      <path d="M33.1,9h-30c-0.6,0-1,0.4-1,1v14c0,0.6,0.4,1,1,1h4v4c0,0.4,0.2,0.8,0.6,0.9C7.8,30,7.9,30,8.1,30c0.3,0,0.5-0.1,0.7-0.3 l4.7-4.7h19.6c0.6,0,1-0.4,1-1V10C34.1,9.4,33.6,9,33.1,9z M10.4,20.1c-0.1,0-0.1,0-0.2,0H7.2v-6h3c0.9-0.1,1.7,0.5,1.8,1.4 c0,0,0,0.1,0,0.1c0,0.6-0.3,1.1-0.8,1.3c0.6,0.2,1.1,0.8,1.1,1.5C12.2,19.4,11.4,20.1,10.4,20.1z M17.9,15.2h-3.3v1.2h3v1.2h-3v1.3 h3.3v1.2h-4.6v-6h4.6V15.2z M21.7,20.1h-1.3v-4.8h-1.9v-1.2h5v1.2h-1.8V20.1z M28.4,20.1l-0.4-1h-2.7l-0.4,1h-1.4l2.4-6h1.4l2.5,6 H28.4z" class="clr-i-solid clr-i-solid-path-4" style="fill: rgb(219, 45, 42);"/>
      <rect x="0" y="0" width="36" height="36" fill-opacity="0" style="fill: rgb(219, 45, 42);"/>
    </g>
  </g>
</svg>