<svg xmlns="http://www.w3.org/2000/svg" xmlns:xlink="http://www.w3.org/1999/xlink" version="1.1" width="100" height="100" viewBox="0 0 1080 1080" xml:space="preserve">
  <g transform="matrix(1 0 0 1 540 540)" id="6c158a89-a7af-45e9-bb32-2e8223b05a0d"  >
  <rect style="stroke: none; stroke-width: 1; stroke-dasharray: none; stroke-linecap: butt; stroke-dashoffset: 0; stroke-linejoin: miter; stroke-miterlimit: 4; fill: rgb(255,255,255); fill-rule: nonzero; opacity: 1; visibility: hidden;" vector-effect="non-scaling-stroke"  x="-540" y="-540" rx="0" ry="0" width="1080" height="1080" />
  </g>
  <g transform="matrix(1 0 0 1 540 540)" id="61b8183d-1bd4-43f0-ab21-dc3d562de277"  >
  </g>
  <g transform="matrix(17.21 0 0 17.21 540 540)"  >
  <path style="stroke: none; stroke-width: 1; stroke-dasharray: none; stroke-linecap: butt; stroke-dashoffset: 0; stroke-linejoin: miter; stroke-miterlimit: 4; fill: rgb(2,132,199); fill-rule: nonzero; opacity: 1;"  transform=" translate(-50, -50)" d="M 50 20 C 53.79 20 56.79 24.11 60.11 25.53 C 63.43 26.950000000000003 68.63 26.16 71.11 28.84 C 73.59 31.52 73 36.42 74.42 39.89 C 75.84 43.36 80 46.21 80 50 C 80 53.79 75.89 56.79 74.47 60.11 C 73.05 63.43 73.84 68.63 71.16 71.11 C 68.63 73.63 63.58 73 60.16 74.42 C 56.739999999999995 75.84 53.79 80 50 80 C 46.21 80 43.21 75.89 39.89 74.47 C 36.57 73.05 31.37 73.84 28.89 71.16 C 26.37 68.63 27 63.58 25.580000000000002 60.16 C 24.160000000000004 56.739999999999995 20 53.79 20 50 C 20 46.21 24.11 43.21 25.53 39.89 C 26.950000000000003 36.57 26.16 31.37 28.84 28.89 C 31.52 26.41 36.42 27 39.89 25.53 C 43.36 24.060000000000002 46.21 20 50 20 Z M 50 29.47 C 38.66159408597381 29.47 29.47 38.66159408597381 29.47 50 C 29.47 61.33840591402619 38.66159408597381 70.53 50 70.53 C 61.33840591402619 70.53 70.53 61.33840591402619 70.53 50 C 70.49704713825655 38.675271692738725 61.32472830726126 29.502952861743445 49.999999999999986 29.47 Z M 59.519999999999996 40.91 L 61.519999999999996 42.809999999999995 C 61.94852408706283 43.367129804288474 61.94852408706283 44.14287019571152 61.519999999999996 44.699999999999996 L 48.78 58.84 C 48.27914660953386 59.418569059355235 47.544937119893184 59.74162123479714 46.78 59.720000000000006 C 46.02066229334431 59.71428674987234 45.2972231792556 59.395973539673314 44.78 58.84 L 37.9 52 C 37.62878444935287 51.76081036709809 37.47341166298534 51.41662073419617 37.47341166298534 51.055 C 37.47341166298534 50.69337926580383 37.62878444935287 50.34918963290191 37.9 50.11 L 39.9 48.21 C 40.15902306009712 47.93339285457517 40.52104821076798 47.77642938868876 40.9 47.77642938868876 C 41.27895178923202 47.77642938868876 41.64097693990288 47.93339285457517 41.9 48.21 L 46.769999999999996 53.21 L 57.52 40.91 C 57.779023060097124 40.63339285457516 58.141048210767984 40.47642938868876 58.52 40.47642938868876 C 58.89895178923202 40.47642938868876 59.26097693990288 40.63339285457516 59.52 40.91 Z" stroke-linecap="round" />
  </g>
</svg>